<svg width="300" height="300" viewBox="0 0 300 300" fill="none" xmlns="http://www.w3.org/2000/svg">
<g opacity="0.5">
<path d="M165.211 52.7463C166.614 52.4869 168.064 52.7121 169.322 53.385C170.581 54.0581 171.572 55.1402 172.135 56.4514C172.698 57.7626 172.799 59.2267 172.421 60.6027C172.414 60.6271 172.406 60.6522 172.404 60.6594L154.005 118.351C154.002 118.359 153.991 118.391 153.98 118.421C153.523 119.646 153.369 120.964 153.532 122.261C153.695 123.558 154.172 124.795 154.919 125.868C155.666 126.941 156.662 127.818 157.822 128.421C158.982 129.024 160.271 129.337 161.578 129.333H228.667C230.762 129.327 232.817 129.915 234.592 131.029C236.368 132.145 237.792 133.741 238.697 135.633C239.602 137.525 239.952 139.634 239.706 141.717C239.46 143.8 238.628 145.77 237.306 147.399C237.275 147.437 237.245 147.471 237.217 147.499L142.342 245.249L142.342 245.248C141.413 246.291 140.165 246.999 138.79 247.253C137.387 247.513 135.936 247.287 134.677 246.614C133.419 245.941 132.427 244.86 131.864 243.549C131.301 242.238 131.2 240.774 131.579 239.398L131.58 239.395L131.591 239.357L131.595 239.34L149.996 181.648C150.001 181.63 150.009 181.606 150.019 181.579C150.477 180.355 150.631 179.037 150.467 177.739C150.304 176.442 149.829 175.204 149.082 174.131C148.335 173.058 147.338 172.182 146.178 171.578C145.019 170.975 143.728 170.663 142.421 170.667H75.3337V170.666C73.2381 170.672 71.1838 170.085 69.4089 168.971C67.6325 167.856 66.2088 166.259 65.3034 164.367C64.3982 162.476 64.0477 160.366 64.2937 158.283C64.5398 156.201 65.3718 154.23 66.6931 152.601C66.6983 152.594 66.7042 152.588 66.7097 152.582L66.7693 152.516L66.782 152.501L161.629 54.7795C162.56 53.7194 163.822 53.0031 165.211 52.7463Z" fill="white" stroke="white" stroke-linecap="round" stroke-linejoin="round"/>
</g>
</svg>
